<svg xmlns="http://www.w3.org/2000/svg" viewBox="0 0 120 80">
  <defs>
    <linearGradient id="g3" x1="0%" y1="0%" x2="100%" y2="100%"><stop offset="0%" stop-color="#e53935"/><stop offset="50%" stop-color="#c00000"/><stop offset="100%" stop-color="#7f0000"/></linearGradient>
    <linearGradient id="gold3" x1="0%" y1="0%" x2="100%" y2="100%"><stop offset="0%" stop-color="#ffe566"/><stop offset="50%" stop-color="#f5c400"/><stop offset="100%" stop-color="#b8860b"/></linearGradient>
  </defs>
  <rect x="2" y="28" width="116" height="24" rx="4" fill="url(#g3)" stroke="#7f0000" stroke-width="1"/>
  <rect x="30" y="8" width="60" height="64" rx="8" fill="url(#gold3)" stroke="#b8860b" stroke-width="1.5"/>
  <rect x="33" y="11" width="54" height="58" rx="6" fill="none" stroke="#ffe566" stroke-width="0.8" opacity="0.6"/>
  <!-- Eagle -->
  <ellipse cx="60" cy="32" rx="10" ry="7" fill="url(#g3)"/>
  <path d="M50 32 Q55 26 60 28 Q65 26 70 32 Q65 38 60 36 Q55 38 50 32Z" fill="#c00000"/>
  <text x="60" y="30" text-anchor="middle" font-family="Arial Black,sans-serif" font-size="5" font-weight="900" fill="#ffe566">IBF</text>
  <text x="60" y="44" text-anchor="middle" font-family="Arial Black,sans-serif" font-size="6.5" font-weight="900" fill="#c00000">IBF</text>
  <text x="60" y="52" text-anchor="middle" font-family="Arial,sans-serif" font-size="3.5" font-weight="700" fill="#c00000">INTL BOXING</text>
  <text x="60" y="58" text-anchor="middle" font-family="Arial,sans-serif" font-size="3.5" font-weight="700" fill="#c00000">FEDERATION</text>
  <rect x="4" y="30" width="26" height="20" rx="3" fill="url(#gold3)" stroke="#b8860b" stroke-width="1"/>
  <text x="17" y="42" text-anchor="middle" font-family="Arial Black,sans-serif" font-size="5" font-weight="900" fill="#c00000">IBF</text>
  <rect x="90" y="30" width="26" height="20" rx="3" fill="url(#gold3)" stroke="#b8860b" stroke-width="1"/>
  <text x="103" y="42" text-anchor="middle" font-family="Arial Black,sans-serif" font-size="5" font-weight="900" fill="#c00000">IBF</text>
</svg>
