<svg xmlns="http://www.w3.org/2000/svg" viewBox="0 0 120 80">
  <defs>
    <linearGradient id="g4" x1="0%" y1="0%" x2="100%" y2="100%"><stop offset="0%" stop-color="#ff9800"/><stop offset="50%" stop-color="#f57c00"/><stop offset="100%" stop-color="#bf360c"/></linearGradient>
    <linearGradient id="gold4" x1="0%" y1="0%" x2="100%" y2="100%"><stop offset="0%" stop-color="#ffe566"/><stop offset="50%" stop-color="#f5c400"/><stop offset="100%" stop-color="#b8860b"/></linearGradient>
  </defs>
  <rect x="2" y="28" width="116" height="24" rx="4" fill="url(#g4)" stroke="#bf360c" stroke-width="1"/>
  <rect x="30" y="8" width="60" height="64" rx="8" fill="url(#gold4)" stroke="#b8860b" stroke-width="1.5"/>
  <rect x="33" y="11" width="54" height="58" rx="6" fill="none" stroke="#ffe566" stroke-width="0.8" opacity="0.6"/>
  <!-- Star -->
  <polygon points="60,18 63,28 73,28 65,34 68,44 60,38 52,44 55,34 47,28 57,28" fill="url(#g4)" stroke="#bf360c" stroke-width="0.5"/>
  <text x="60" y="52" text-anchor="middle" font-family="Arial Black,sans-serif" font-size="7" font-weight="900" fill="#f57c00">WBA</text>
  <text x="60" y="60" text-anchor="middle" font-family="Arial,sans-serif" font-size="3.5" font-weight="700" fill="#f57c00">WORLD BOXING</text>
  <text x="60" y="66" text-anchor="middle" font-family="Arial,sans-serif" font-size="3.5" font-weight="700" fill="#f57c00">ASSOCIATION</text>
  <rect x="4" y="30" width="26" height="20" rx="3" fill="url(#gold4)" stroke="#b8860b" stroke-width="1"/>
  <text x="17" y="42" text-anchor="middle" font-family="Arial Black,sans-serif" font-size="5" font-weight="900" fill="#f57c00">WBA</text>
  <rect x="90" y="30" width="26" height="20" rx="3" fill="url(#gold4)" stroke="#b8860b" stroke-width="1"/>
  <text x="103" y="42" text-anchor="middle" font-family="Arial Black,sans-serif" font-size="5" font-weight="900" fill="#f57c00">WBA</text>
</svg>
